<?xml version="1.0" encoding="utf-8"?>
<!-- Generator: Adobe Illustrator 15.1.0, SVG Export Plug-In . SVG Version: 6.00 Build 0)  -->
<!DOCTYPE svg PUBLIC "-//W3C//DTD SVG 1.1//EN" "http://www.w3.org/Graphics/SVG/1.1/DTD/svg11.dtd">
<svg version="1.1" id="Flipshop_Merchant_Page_xA0_Image_1_"
	 xmlns="http://www.w3.org/2000/svg" xmlns:xlink="http://www.w3.org/1999/xlink" x="0px" y="0px" width="116.213px"
	 height="33.364px" viewBox="0 0 116.213 33.364" enable-background="new 0 0 116.213 33.364" xml:space="preserve">
<path fill-rule="evenodd" clip-rule="evenodd" fill="#FB4246" d="M44.365,18.889c-1.833-1.232-6.08-1.79-6.146-3.893
	c-0.065-2.09,2.949-3.415,5.094-2.034c0.359,0.287,0.937,1.034,0.802,1.687c-0.1,0.492-0.533,0.84-0.534,1.195
	c-0.003,1.032,1.676,1.959,2.846,0.522c0.959-1.179,0.713-2.399,0.633-2.7c-0.327-1.227-1.23-2.596-3.427-3.383v-0.009
	c-0.155-0.05-0.313-0.095-0.472-0.136c-0.035-0.009-0.071-0.017-0.108-0.025c-4.725-1.136-10.622,2.226-8.361,7.808
	c0.337,0.834,1.345,1.641,2.156,2.158c1.834,1.171,4.991,1.442,5.579,3.057c0.688,1.888-0.784,3.572-2.715,3.64
	c-0.707,0.025-1.614-0.103-2.369-0.462c-0.212-0.118-0.526-0.31-0.805-0.546c-0.051-0.049-0.1-0.1-0.146-0.153l-0.001,0.021
	c-0.306-0.297-0.427-0.877-0.323-1.236c0.159-0.554,0.596-0.547,0.604-0.955c0.024-1.18-1.882-2.271-3.247-0.646
	c-1.12,1.333-0.569,2.604-0.477,2.947c0.137,0.505,1.768,3.587,5.666,3.711L38.61,29.45c3.017,0.264,6.199-0.906,7.505-3.312
	C47.47,23.643,47.023,20.675,44.365,18.889z"/>
<path fill="#FB4246" d="M26.397,8.484L14.271,0.218C14.06,0.072,13.809,0,13.558,0c-0.247,0-0.494,0.069-0.706,0.212L0.507,8.478
	C0.188,8.692,0,9.036,0,9.403v22.824c0,0.627,0.543,1.137,1.213,1.137h24.471c0.67,0,1.213-0.51,1.213-1.137V9.403
	C26.896,9.039,26.712,8.698,26.397,8.484z M13.697,4.026c0.824,0.11,1.396,0.827,1.278,1.599s-0.881,1.308-1.705,1.197
	s-1.396-0.826-1.278-1.598C12.11,4.452,12.873,3.916,13.697,4.026z M16.396,13.403c-2.17-1.398-5.22-0.058-5.153,2.057
	c0.067,2.127,4.363,2.692,6.219,3.939c2.689,1.805,3.141,4.808,1.77,7.332c-1.32,2.434-4.54,3.618-7.591,3.35l0.003,0.008
	c-3.944-0.126-5.594-3.244-5.732-3.754c-0.094-0.349-0.651-1.634,0.482-2.982c1.382-1.644,3.31-0.54,3.284,0.653
	c-0.008,0.413-0.449,0.406-0.61,0.966c-0.104,0.363,0.019,0.95,0.327,1.251l0.001-0.021c0.046,0.054,0.096,0.104,0.147,0.155
	c0.281,0.239,0.6,0.433,0.813,0.552c0.764,0.363,1.687,0.549,2.396,0.468c1.811-0.205,3.442-1.774,2.747-3.683
	c-0.596-1.633-3.788-1.908-5.644-3.092c-0.821-0.523-1.841-1.34-2.182-2.183c-2.287-5.646,3.679-9.049,8.459-7.898
	c0.036,0.008,0.073,0.017,0.109,0.025c0.16,0.041,0.319,0.087,0.478,0.138v0.009c2.222,0.796,3.135,2.181,3.466,3.422
	c0.081,0.305,0.329,1.538-0.641,2.73c-1.183,1.454-2.883,0.516-2.879-0.527c0.002-0.36,0.439-0.713,0.541-1.21
	C17.343,14.448,16.759,13.693,16.396,13.403z"/>
<path fill-rule="evenodd" clip-rule="evenodd" fill="#FB4246" d="M59.268,21.353c1.227-3.357-1.578-4.93-4.242-4.868
	c-2.64,0.059-4.408,1.427-5.666,3.234c-3.048,4.386-0.688,10.123,4.836,9.714c1.229-0.091,2.945-0.293,3.99-1.404
	c0.881-0.936,0.959-1.928-0.216-2.122c-0.61-0.101-1.27,0.566-1.632,0.718c-0.514,0.217-0.938,0.392-1.498,0.458
	c-1.84,0.218-3.49-0.63-3.09-2.604C55.401,24.373,58.414,23.689,59.268,21.353z M55.049,18.782c1.774,0.036,1.902,1.909,0.581,2.774
	c-1.065,0.697-3.603,0.782-3.593,0.682C52.168,20.78,53.269,18.745,55.049,18.782z"/>
<path fill-rule="evenodd" clip-rule="evenodd" fill="#FB4246" d="M116.112,20.656c-0.38-2.344-1.809-3.947-5.021-3.931
	c-4.662,0.022-7.216,5.186-6.331,8.967c0.453,1.936,1.714,3.543,4.434,3.887c0.711,0,1.401,0.055,2.129-0.113
	C115.004,28.612,116.656,24.009,116.112,20.656z M109.028,27.006c-2.11-0.947-0.678-7.652,1.884-7.895
	C114.823,18.74,112.527,28.576,109.028,27.006z"/>
<path fill-rule="evenodd" clip-rule="evenodd" fill="#FB4246" d="M101.899,20.51c0.323,0.782,1.708,1.066,2.013-0.316
	c1.012-4.594-8.262-4.821-9.624-1.198c-0.482,1.281-0.055,2.777,0.972,3.752c1.208,1.149,4.272,1.473,4.443,2.948
	c0.127,1.087-1.013,1.558-1.901,1.554c-0.553-0.003-1.098-0.119-1.615-0.32c-0.377-0.146-1.185-0.975-1.559-0.96
	c-0.797,0.038-0.956,1.126-1.724,1.29c-0.773,0.163-1.057-0.443-0.952-1c0.231-1.702,0.54-3.651,0.743-5.438
	c0.267-2.356,0.131-4.166-2.829-3.966c-1.945,0.132-3.246,1.047-3.952,2.346c-0.591-3.903-6.096-2.062-6.821,0.123
	c0.063-0.723-1.323-2.278-2.879-2.461c-1.333-0.156-2.989,0.449-3.217,1.416c-0.256,1.095,0.52,1.238,0.903,1.071
	c0.629-0.275,1.331,0.255,1.205,1.217c-0.041,0.309-0.711,4.893-0.998,8.28c0.049,0.251,0.257,0.33,0.421,0.353
	c1.066,0,2.308,0,2.941,0c0.131-0.029,0.274-0.103,0.341-0.268c0.158-1.242,0.858-6.403,0.92-6.774
	c0.076-0.462,0.79-2.856,2.635-2.403c1.144,0.28,0.79,2.263,0.79,2.263l-0.788,6.85c0.05,0.213,0.214,0.3,0.359,0.333h2.762
	c0.153-0.035,0.328-0.129,0.368-0.367c0.124-1.242,0.546-5.3,0.885-6.979c0.18-0.888,0.55-1.539,1.493-1.976
	c1.154-0.533,2.178,0.131,2.109,1.337c-0.109,1.85-0.5,3.728-0.623,5.329c-0.101,1.296,0.421,2.412,1.898,2.78
	c1.281,0.318,2.418-0.068,3.36-0.623l0.29-0.165c1.023,0.746,1.798,0.853,2.971,1.033c0.626,0.048,1.112,0.071,1.65-0.004
	c3.234-0.377,5.301-2.676,4.109-5.566c-0.384-0.933-1.574-1.615-2.644-1.991c-1.068-0.375-2.675-1.062-2.723-2.146
	c-0.041-0.934,1.15-1.568,2.296-1.51c0.54,0.027,1.873,0.549,2.025,1.22C102.044,19.969,101.786,20.239,101.899,20.51z"/>
<path fill-rule="evenodd" clip-rule="evenodd" fill="#FB4246" d="M72.641,27.181c-0.321-0.093-0.543-0.055-0.728,0.033
	c-0.046,0.019-0.094,0.034-0.144,0.045c-0.773,0.163-1.057-0.443-0.951-1c0.001-0.011,0.002-0.021,0.004-0.03
	c0.007-0.031,0.014-0.063,0.021-0.097c0.27-1.891,0.425-2.837,0.496-3.234c0.01-0.061,0.02-0.12,0.029-0.18
	c0.008-0.043,0.012-0.062,0.012-0.062s0.057-0.232,0.106-0.604c0.136-0.726,0.09-0.585,0.194-1.426
	c0.35-2.26-1.547-3.834-3.622-3.994c-0.004,0-0.007,0-0.011,0c-4.463-0.524-8.173,3.199-8.115,7.767
	c0.023,1.747,0.455,4.313,3.132,4.973c2.093,0.516,4.303-0.449,4.927-2.457c-0.161,0.519,0.148,1.168,0.417,1.503
	c0.567,0.709,1.163,0.994,2.098,1.018c0.001,0,0.003,0,0.004,0c0.02,0,0.038,0.001,0.057,0.001c0.782,0.009,1.822-0.247,2.225-0.912
	C73.072,28.065,73.212,27.347,72.641,27.181z M68.264,20.294c0.038,0.771-0.2,1.647-0.291,2.151c-0.135,0.753-0.3,1.689-0.526,2.375
	c-0.387,1.173-1.14,2.116-2.35,2.103c-2.514-0.029-1.87-5.291-0.224-6.834c0.396-0.371,0.886-0.87,1.766-1.038
	C67.788,18.833,68.222,19.465,68.264,20.294z"/>
</svg>
